# xmcd CD database file
#
# Track frame offsets:
#	150
#	14037
#	24899
#	34901
#	48577
#	57705
#	75763
#	88130
#	98714
#	115399
#
# Disc length: 1746 seconds
#
# Revision: 0
# Processed by: cddbd v1.5.2PL0 Copyright (c) Steve Scherf et al.
# Submitted via: CDex 1.70beta2
#
DISCID=7b06d00a
DTITLE=Various Artist - 30 Country Love Songs [CD 2)
DYEAR=2006
DGENRE=Country
TTITLE0=Georges Jones and Tammy Wynette_Golden Ring
TTITLE1=Why don't you love me_Hank Williams
TTITLE2=Johnny Cash_Ballad of teenage queen
TTITLE3=Lee Greenwood_Don't underestimate my love for you
TTITLE4=Webb Pierce_Love, love, love
TTITLE5=Freddy Fender_Secret love (Live)
TTITLE6=Eddy Arnold_Just a little lovin' (will go a long, long way)
TTITLE7=Carl Smith_(When you feel like you're in love) don't just stand there
TTITLE8=Ray Price_You're the best thing that ever happened to me
TTITLE9=Conway Twitty_Touch the hand
EXTD=YEAR: 2006
EXTT0=
EXTT1=
EXTT2=
EXTT3=
EXTT4=
EXTT5=
EXTT6=
EXTT7=
EXTT8=
EXTT9=
PLAYORDER=
